Results
version=1
nRows=17
nColumns=24
inDegrees=yes
endheader
time	pelvis_tilt	pelvis_list	pelvis_rotation	pelvis_tx	pelvis_ty	pelvis_tz	hip_flexion_r	hip_adduction_r	hip_rotation_r	knee_angle_r	ankle_angle_r	subtalar_angle_r	mtp_angle_r	hip_flexion_l	hip_adduction_l	hip_rotation_l	knee_angle_l	ankle_angle_l	subtalar_angle_l	mtp_angle_l	lumbar_extension	lumbar_bending	lumbar_rotation
      0.90400000	     -9.31761621	     -3.16929661	      5.91721989	     -0.39400383	      0.90145875	      0.29394364	     20.96224896	      8.17455157	     -3.35467802	    -22.14770793	      8.93733109	     -3.04218716	      6.72473911	     20.70176413	     -6.89744558	     -4.12489362	    -61.07421687	      6.16593785	     -3.78728073	      5.79074026	      6.76256130	      4.43931372	     -3.04243173
      0.90816667	     -9.22462601	     -3.01940443	      5.68920373	     -0.38908744	      0.90255423	      0.29436632	     20.25490211	      8.17074812	     -3.03749607	    -21.66106749	      8.97200883	     -3.04189869	      6.70943421	     21.18719431	     -6.75251931	     -4.43296960	    -60.54194156	      6.51939514	     -3.88210000	      5.66660558	      6.58176916	      4.30885239	     -2.51094888
      0.91233333	     -9.17533047	     -2.86166194	      5.44612025	     -0.38421816	      0.90352317	      0.29479525	     19.61519300	      8.14520933	     -2.73132894	    -21.21172290	      9.00777972	     -2.98970296	      6.69886964	     21.71199841	     -6.59989747	     -4.75807682	    -59.97309674	      6.85913890	     -3.99912005	      5.55787139	      6.46203892	      4.17702583	     -2.17210057
      0.91650000	     -9.10810567	     -2.70180160	      5.19244839	     -0.37933600	      0.90449034	      0.29523725	     18.95130525	      8.11675755	     -2.42290773	    -20.75001495	      9.04549020	     -2.94346744	      6.68987320	     22.19648241	     -6.45528895	     -5.10395629	    -59.34347788	      7.15071778	     -4.11741107	      5.44606299	      6.33937707	      4.04730941	     -1.79992158
      0.92066667	     -9.06168586	     -2.54356296	      4.90482812	     -0.37447450	      0.90535778	      0.29572347	     18.33186672	      8.08539907	     -2.11900556	    -20.32903457	      9.05535986	     -2.85362838	      6.68606942	     22.68983379	     -6.33433298	     -5.50082530	    -58.68244088	      7.43574471	     -4.25309092	      5.37692584	      6.24781304	      3.91408384	     -1.55207287
      0.92483333	     -8.96400324	     -2.39413994	      4.65057077	     -0.36961296	      0.90628423	      0.29618812	     17.62989020	      8.06049030	     -1.81340467	    -19.84340707	      9.10250730	     -2.84470409	      6.67964696	     23.12223897	     -6.21662370	     -5.85151748	    -57.96561159	      7.62020856	     -4.37247717	      5.23130444	      6.08028575	      3.78560829	     -0.99906214
      0.92900000	     -8.90836402	     -2.24538842	      4.35002902	     -0.36479228	      0.90707861	      0.29670413	     16.99874951	      8.03389745	     -1.48398690	    -19.40149031	      9.10133419	     -2.78313448	      6.67483877	     23.58410797	     -6.11797685	     -6.25530385	    -57.21719270	      7.82318779	     -4.49180366	      5.00004841	      5.96902781	      3.67951788	     -0.51874464
      0.93316667	     -8.83524878	     -2.08827907	      4.04838660	     -0.35997970	      0.90785036	      0.29721745	     16.35405556	      7.99140192	     -1.16597192	    -18.97276782	      9.15212152	     -2.71791920	      6.67658443	     24.01151261	     -6.01715047	     -6.67033726	    -56.42076734	      7.96733701	     -4.63112119	      4.73141511	      5.83558482	      3.54727956	     -0.10407044
      0.93733333	     -8.75275990	     -1.92469394	      3.74723939	     -0.35519588	      0.90859691	      0.29772031	     15.70723606	      7.93474072	     -0.84527495	    -18.55664947	      9.21445851	     -2.63698925	      6.68084356	     24.41438482	     -5.90389914	     -7.07186205	    -55.57280813	      8.05889992	     -4.78897473	      4.63136138	      5.67263681	      3.42211473	      0.14920814
      0.94150000	     -8.67310161	     -1.76986793	      3.42529252	     -0.35041898	      0.90927565	      0.29825464	     15.06894198	      7.88272267	     -0.52439176	    -18.14476692	      9.25599723	     -2.55017357	      6.68686454	     24.80809533	     -5.82103019	     -7.51158600	    -54.69520168	      8.13016096	     -4.95587291	      4.53376090	      5.52288837	      3.29557565	      0.51300093
      0.94566667	     -8.60780286	     -1.64567454	      3.11595852	     -0.34567609	      0.90986724	      0.29878092	     14.44181049	      7.85444013	     -0.21334094	    -17.70682259	      9.28763777	     -2.45882591	      6.70395860	     25.22390406	     -5.76510460	     -7.91785197	    -53.80380477	      8.19133028	     -5.11222656	      4.30109166	      5.38956594	      3.18441358	      1.11960320
      0.94983333	     -8.53160585	     -1.50736515	      2.79930517	     -0.34093518	      0.91043293	      0.29928782	     13.81508576	      7.80184321	      0.08844313	    -17.29962295	      9.34178282	     -2.35070601	      6.72601197	     25.60420818	     -5.69532666	     -8.33603143	    -52.85747870	      8.20523945	     -5.29306430	      4.08886241	      5.23843022	      3.07978111	      1.52647843
      0.95400000	     -8.48128212	     -1.37340776	      2.47214014	     -0.33622093	      0.91088718	      0.29982585	     13.22838238	      7.74893869	      0.39916507	    -16.91303612	      9.41532976	     -2.22295229	      6.73633119	     26.00626998	     -5.64666209	     -8.78093585	    -51.88984660	      8.18607504	     -5.43447976	      4.01942894	      5.11699204	      2.94428378	      1.71113716
      0.95816667	     -8.39640141	     -1.25250993	      2.15514821	     -0.33149537	      0.91136217	      0.30029041	     12.60097056	      7.69511107	      0.66806157	    -16.51533688	      9.48296767	     -2.10473708	      6.76815576	     26.35051805	     -5.58878066	     -9.17545632	    -50.86632443	      8.15360749	     -5.63474118	      3.80641174	      4.97104824	      2.88148578	      2.34536138
      0.96233333	     -8.32700966	     -1.13620013	      1.83609948	     -0.32679609	      0.91174615	      0.30076580	     11.99799350	      7.63965017	      0.93976385	    -16.12949206	      9.56330606	     -1.95966651	      6.80228483	     26.70627145	     -5.54370172	     -9.57905126	    -49.82215789	      8.09072786	     -5.81041143	      3.61399783	      4.82881214	      2.79331071	      2.74212625
      0.96650000	     -8.26907203	     -1.02027237	      1.50701090	     -0.32210279	      0.91205641	      0.30124740	     11.42165793	      7.57822819	      1.20506564	    -15.77347280	      9.65261369	     -1.82363152	      6.81949187	     27.05875265	     -5.51105758	    -10.00894900	    -48.74432015	      7.99068973	     -5.94235300	      3.53349939	      4.70866790	      2.70628487	      2.96606099
      0.97066667	     -8.19524359	     -0.92763466	      1.21206379	     -0.31740359	      0.91233659	      0.30165626	     10.80818560	      7.52626679	      1.43607104	    -15.37075998	      9.76947198	     -1.65894346	      6.85062183	     27.39276457	     -5.47322243	    -10.35879427	    -47.64369105	      7.89326628	     -6.12821746	      3.40232602	      4.56569223	      2.63186862	      3.46226122
